<?xml version="1.0" standalone="no"?>
<!DOCTYPE svg PUBLIC "-//W3C//DTD SVG 20010904//EN"
 "http://www.w3.org/TR/2001/REC-SVG-20010904/DTD/svg10.dtd">
<svg version="1.0" xmlns="http://www.w3.org/2000/svg"
 width="1429.000000pt" height="1429.000000pt" viewBox="0 0 1429.000000 1429.000000"
 preserveAspectRatio="xMidYMid meet">

<g transform="translate(0.000000,1429.000000) scale(0.100000,-0.100000)"
fill="#000000" stroke="none">
<path d="M12223 8748 c-13 -6 -25 -20 -28 -32 -4 -12 -11 -31 -17 -43 -18 -37
38 -243 89 -328 12 -20 13 -19 35 6 33 38 86 71 99 63 8 -4 9 -3 5 4 -4 8 0
12 11 12 16 0 18 8 14 83 -4 89 -28 169 -62 206 -28 30 -43 22 -50 -28 -8 -58
-21 -67 -43 -29 -11 18 -14 28 -6 23 10 -6 12 -1 7 25 -4 18 -7 36 -7 41 0 12
-19 10 -47 -3z"/>
<path d="M13554 8291 c8 -12 -102 -114 -114 -106 -6 3 -10 2 -10 -4 0 -6 16
-21 35 -34 29 -20 33 -26 22 -39 -6 -9 -33 -19 -59 -23 -27 -3 -48 -10 -48
-14 0 -18 151 -109 231 -140 137 -53 144 -57 185 -128 53 -91 104 -123 199
-123 54 0 79 5 110 23 42 24 52 46 54 113 l1 42 -101 33 c-92 30 -132 56 -101
67 7 2 10 8 6 13 -11 19 25 20 63 1 48 -24 122 -47 128 -40 9 9 -34 117 -64
162 -31 45 -76 86 -93 86 -5 0 -6 -5 -3 -10 8 -13 -22 -117 -36 -125 -5 -4
-24 -1 -40 5 -21 9 -28 17 -24 29 18 45 43 135 40 141 -9 15 -103 34 -160 33
-34 0 -84 -10 -114 -22 -30 -11 -56 -20 -57 -18 -1 1 -11 21 -23 45 -12 23
-24 42 -27 42 -3 0 -3 -4 0 -9z m214 -186 c45 -25 82 -48 82 -50 0 -4 -22 -57
-26 -64 -9 -13 -237 116 -229 130 4 5 -2 6 -12 2 -13 -5 -9 3 12 29 l30 36 30
-19 c17 -10 67 -38 113 -64z m149 -83 c31 -17 31 -18 18 -50 l-14 -32 -36 17
c-25 12 -34 21 -29 32 3 9 9 24 11 34 6 21 10 21 50 -1z"/>
<path d="M13427 7806 c-18 -27 -15 -46 6 -46 8 0 13 -27 14 -86 2 -91 9 -109
49 -117 52 -10 154 94 154 157 l0 36 -70 0 c-74 0 -95 11 -125 65 -10 17 -12
16 -28 -9z"/>
<path d="M11933 7550 c-104 -23 -213 -159 -403 -500 -125 -223 -182 -340 -176
-355 7 -19 135 -114 163 -121 18 -5 34 6 80 52 32 33 95 91 139 131 114 101
244 281 244 338 0 33 19 12 36 -37 42 -131 176 -448 189 -448 3 0 4 4 1 9 -3
4 6 23 20 42 73 98 83 129 119 346 19 114 35 215 35 223 -1 34 -219 241 -303
288 -60 34 -98 42 -144 32z m-115 -135 c-3 -3 -9 2 -12 12 -6 14 -5 15 5 6 7
-7 10 -15 7 -18z m276 -254 c-5 -5 -29 24 -45 54 -6 11 3 4 20 -15 16 -19 28
-37 25 -39z m35 -45 c-3 -3 -11 5 -18 17 -13 21 -12 21 5 5 10 -10 16 -20 13
-22z m92 -123 c13 -16 12 -17 -3 -4 -10 7 -18 15 -18 17 0 8 8 3 21 -13z
m-536 -32 c-8 -17 -19 -33 -25 -36 -5 -3 -1 10 11 29 25 43 36 48 14 7z m-50
-80 c-8 -17 -19 -33 -25 -36 -5 -3 -1 10 11 29 25 43 36 48 14 7z"/>
<path d="M12406 7189 c-2 -8 -14 -77 -26 -154 -11 -77 -24 -149 -27 -160 -7
-26 9 -11 34 32 10 18 35 58 55 91 36 57 37 59 23 98 -8 21 -14 46 -15 55 0 9
-9 24 -20 34 -16 14 -20 15 -24 4z"/>
<path d="M12740 7188 c0 -8 28 -72 79 -178 17 -36 29 -54 25 -40 -3 14 -22 58
-40 99 -19 41 -32 81 -29 90 3 8 3 12 -1 8 -4 -4 -13 1 -20 11 -7 9 -14 14
-14 10z"/>
<path d="M12893 7005 c0 -8 4 -12 9 -9 5 3 6 10 3 15 -9 13 -12 11 -12 -6z"/>
<path d="M12605 6920 c-3 -5 -16 -10 -29 -10 -16 0 -33 -16 -62 -57 -21 -32
-42 -59 -46 -61 -5 -2 -8 -8 -8 -12 0 -5 -31 -53 -70 -108 -71 -101 -84 -132
-52 -132 12 0 14 -2 4 -9 -10 -6 -11 -18 -3 -52 6 -24 11 -76 11 -115 0 -57
-4 -77 -21 -97 -20 -26 -20 -28 -3 -89 9 -35 21 -67 25 -72 6 -7 51 8 92 31 4
2 7 2 7 -1 0 -3 -20 -15 -45 -27 -50 -23 -52 -38 -16 -89 18 -24 23 -25 147
-28 143 -4 213 7 289 45 80 40 80 40 27 83 -41 33 -65 60 -116 135 -14 19 -16
19 -93 -20 -43 -22 -81 -44 -84 -49 -4 -5 -13 -6 -20 -4 -8 3 29 27 82 53 l97
48 -15 41 c-44 124 -55 296 -27 416 21 89 21 82 -15 139 -33 51 -45 60 -56 41z
m-125 -235 c19 -22 8 -25 -12 -3 -10 10 -14 18 -9 18 5 0 14 -7 21 -15z m5
-109 c-36 -15 -92 -30 -84 -22 8 9 82 35 99 35 8 0 2 -6 -15 -13z"/>
<path d="M11166 6584 c-68 -101 -111 -140 -189 -170 -80 -31 -117 -61 -117
-97 0 -19 7 -26 31 -31 55 -11 164 -7 215 8 66 20 102 21 218 12 90 -8 101 -7
113 10 16 21 17 94 2 147 l-10 37 -52 -6 c-47 -6 -56 -3 -84 20 -37 31 -49 61
-34 80 13 15 0 29 -35 40 -17 5 -27 -3 -58 -50z m-48 -139 c-3 -3 -9 2 -12 12
-6 14 -5 15 5 6 7 -7 10 -15 7 -18z m110 -102 c-10 -2 -26 -2 -35 0 -10 3 -2
5 17 5 19 0 27 -2 18 -5z"/>
<path d="M12281 6511 c-12 -8 -12 -22 -2 -88 20 -137 22 -144 31 -138 16 10
21 83 10 146 -14 78 -21 91 -39 80z"/>
<path d="M12125 6450 c-11 -5 -74 -30 -140 -56 -156 -61 -375 -162 -478 -221
-89 -50 -212 -132 -497 -332 -102 -71 -265 -184 -363 -251 l-178 -122 7 -36
c3 -20 15 -57 25 -81 10 -24 16 -47 13 -52 -3 -5 0 -8 8 -7 7 2 13 -3 13 -9 0
-14 -129 -93 -152 -93 -19 0 -53 18 -80 42 -16 15 -20 25 -13 42 4 12 4 42 0
67 -7 34 -6 46 6 55 12 9 9 13 -17 18 -24 5 -65 -6 -168 -44 -75 -28 -173 -57
-218 -64 -45 -7 -90 -19 -99 -27 -22 -18 -14 -87 14 -127 35 -49 75 -61 223
-67 74 -3 159 -12 189 -20 63 -17 128 -19 163 -6 14 5 55 49 93 98 37 48 71
92 74 96 4 4 19 3 35 -3 24 -9 34 -7 67 15 21 14 91 41 156 61 202 61 404 147
520 221 63 40 152 121 152 137 0 16 128 48 365 91 166 31 412 98 454 124 12 8
12 14 -2 43 -23 49 -41 92 -42 103 -1 6 -7 24 -14 40 -7 17 -18 54 -24 82 -7
35 -17 55 -29 59 -22 7 -32 60 -25 133 6 56 1 102 -12 100 -3 0 -15 -4 -26 -9z
m110 -419 c-6 -5 -21 -11 -35 -15 -21 -5 -20 -3 5 9 35 17 42 18 30 6z m-70
-30 c-12 -11 -115 -51 -130 -50 -8 0 122 57 135 58 2 1 0 -3 -5 -8z m-155 -61
c-8 -5 -19 -10 -25 -10 -5 0 -3 5 5 10 8 5 20 10 25 10 6 0 3 -5 -5 -10z m-50
-17 c-8 -3 -24 -10 -35 -15 -20 -9 -20 -9 -1 6 11 9 27 16 35 15 14 0 14 -1 1
-6z m-73 -29 c-3 -3 -12 -4 -19 -1 -8 3 -5 6 6 6 11 1 17 -2 13 -5z m-92 -24
c-27 -12 -43 -12 -25 0 8 5 22 9 30 9 10 0 8 -3 -5 -9z m-48 -16 c-3 -3 -12
-4 -19 -1 -8 3 -5 6 6 6 11 1 17 -2 13 -5z m-57 -14 c-8 -5 -19 -10 -25 -10
-5 0 -3 5 5 10 8 5 20 10 25 10 6 0 3 -5 -5 -10z m-1547 -500 c3 -11 1 -18 -4
-14 -5 3 -9 12 -9 20 0 20 7 17 13 -6z m54 -116 c-3 -3 -12 -4 -19 -1 -8 3 -5
6 6 6 11 1 17 -2 13 -5z"/>
<path d="M13223 6428 c15 -12 42 -27 60 -33 48 -15 46 -42 -8 -95 -34 -33 -45
-52 -45 -74 l0 -30 60 59 c64 63 76 88 66 131 -8 29 -46 48 -116 58 l-45 6 28
-22z"/>
<path d="M13060 6330 c-9 -6 -10 -10 -3 -10 6 0 15 5 18 10 8 12 4 12 -15 0z"/>
<path d="M13019 6297 c-17 -38 15 -162 47 -183 16 -11 28 -13 40 -6 15 8 14
12 -9 33 -25 24 -52 115 -41 142 3 8 -2 19 -10 26 -13 11 -17 9 -27 -12z"/>
<path d="M13203 6274 c-12 -42 -7 -304 6 -339 9 -25 10 -18 4 40 -10 111 -6
273 8 290 4 6 4 17 -1 25 -7 11 -11 7 -17 -16z"/>
<path d="M13218 5865 c2 -14 6 -25 8 -25 2 0 4 11 4 25 0 14 -4 25 -9 25 -4 0
-6 -11 -3 -25z"/>
<path d="M13364 5806 c1 -21 3 -23 16 -11 12 11 20 11 46 0 41 -17 57 -59 38
-103 -18 -43 -54 -56 -100 -37 -32 13 -61 56 -49 75 3 4 -2 13 -10 20 -13 11
-15 7 -15 -24 0 -34 -1 -35 -25 -26 -33 13 -32 7 10 -34 45 -45 48 -94 9 -125
-64 -50 -144 3 -128 85 6 35 -8 48 -20 18 -27 -71 21 -144 96 -144 62 1 108
44 108 103 0 23 3 24 45 20 41 -5 47 -3 80 30 47 47 48 92 4 142 -25 28 -38
35 -69 35 -34 0 -38 -3 -36 -24z"/>
</g>
</svg>
